<?xml version="1.0" standalone="no"?><svg xmlns="http://www.w3.org/2000/svg" viewBox="0 0 1440 320"><path fill="#5e8c6a" fill-opacity="1" d="M0,192L40,165.3C80,139,160,85,240,106.7C320,128,400,224,480,266.7C560,309,640,299,720,282.7C800,267,880,245,960,202.7C1040,160,1120,96,1200,69.3C1280,43,1360,53,1400,58.7L1440,64L1440,320L1400,320C1360,320,1280,320,1200,320C1120,320,1040,320,960,320C880,320,800,320,720,320C640,320,560,320,480,320C400,320,320,320,240,320C160,320,80,320,40,320L0,320Z"></path></svg>